<svg xmlns="http://www.w3.org/2000/svg" viewBox="0 0 300 300" fill="none">
  <rect width="300" height="300" fill="#f8fafc"/>
  <rect x="50" y="60" width="200" height="180" fill="none" stroke="#f97316" stroke-width="3" rx="8"/>
  <line x1="90" y1="100" x2="210" y2="100" stroke="#f97316" stroke-width="2"/>
  <line x1="90" y1="140" x2="210" y2="140" stroke="#f97316" stroke-width="2"/>
  <line x1="90" y1="180" x2="210" y2="180" stroke="#f97316" stroke-width="2"/>
  <rect x="90" y="70" width="30" height="20" fill="#f97316" rx="2"/>
  <rect x="90" y="110" width="50" height="20" fill="#64748b" rx="2"/>
  <rect x="90" y="150" width="40" height="20" fill="#64748b" rx="2"/>
  <rect x="90" y="190" width="60" height="20" fill="#64748b" rx="2"/>
  <rect x="150" y="70" width="40" height="20" fill="#64748b" rx="2"/>
  <rect x="150" y="110" width="30" height="20" fill="#f97316" rx="2"/>
  <rect x="150" y="150" width="45" height="20" fill="#64748b" rx="2"/>
  <rect x="150" y="190" width="25" height="20" fill="#64748b" rx="2"/>
  <text x="150" y="260" font-family="system-ui" font-size="14" fill="#0f172a" text-anchor="middle">Project Management</text>
</svg>