<svg xmlns="http://www.w3.org/2000/svg" viewBox="0 0 1200 800" fill="none">
  <rect width="1200" height="800" fill="#e8ecf1"/>
  <rect x="100" y="500" width="1000" height="200" fill="#cbd5e1"/>
  <rect x="150" y="350" width="200" height="150" fill="#94a3b8" opacity="0.8"/>
  <rect x="400" y="300" width="180" height="200" fill="#64748b" opacity="0.9"/>
  <rect x="650" y="380" width="220" height="120" fill="#94a3b8" opacity="0.7"/>
  <rect x="950" y="320" width="150" height="180" fill="#64748b" opacity="0.8"/>
  <rect x="50" y="520" width="80" height="160" fill="#f97316" opacity="0.9"/>
  <rect x="180" y="480" width="60" height="200" fill="#f97316" opacity="0.7"/>
  <rect x="300" y="500" width="100" height="140" fill="#f97316" opacity="0.6"/>
  <rect x="1050" y="490" width="70" height="190" fill="#f97316" opacity="0.8"/>
  <rect x="200" y="580" width="400" height="20" fill="#f97316" opacity="0.4"/>
  <rect x="650" y="580" width="300" height="20" fill="#f97316" opacity="0.4"/>
  <circle cx="300" cy="590" r="8" fill="#f97316"/>
  <circle cx="400" cy="590" r="8" fill="#f97316"/>
  <circle cx="500" cy="590" r="8" fill="#f97316"/>
  <circle cx="700" cy="590" r="8" fill="#f97316"/>
  <circle cx="800" cy="590" r="8" fill="#f97316"/>
  <circle cx="900" cy="590" r="8" fill="#f97316"/>
  <text x="600" y="750" font-family="system-ui" font-size="18" fill="#475569" text-anchor="middle">Epicshield Surfaces — Construction Excellence</text>
</svg>