<svg width="1200" height="900" viewBox="0 0 1200 900" fill="none" xmlns="http://www.w3.org/2000/svg">
  <rect width="1200" height="900" fill="#F5ECE1"/>
  <rect x="64" y="64" width="1072" height="772" rx="36" fill="url(#bg)"/>
  <rect x="132" y="132" width="936" height="636" rx="28" fill="#F8F1E7"/>
  <rect x="190" y="190" width="320" height="430" rx="22" fill="#EFE3D3"/>
  <rect x="540" y="190" width="452" height="220" rx="22" fill="#D8C9B7"/>
  <rect x="540" y="440" width="452" height="240" rx="22" fill="#FBF7F0"/>
  <rect x="604" y="524" width="236" height="108" rx="54" fill="#E9D8C4"/>
  <rect x="622" y="468" width="198" height="68" rx="34" fill="#EDE3D7"/>
  <rect x="846" y="506" width="110" height="86" rx="18" fill="#C89B72" fill-opacity="0.35"/>
  <rect x="254" y="306" width="190" height="184" rx="94" fill="#2F6B69" fill-opacity="0.14"/>
  <rect x="212" y="644" width="308" height="44" rx="22" fill="#DCCDB9"/>
  <path d="M278 644H468" stroke="#6E665C" stroke-width="4" stroke-linecap="round"/>
  <path d="M880 190V680" stroke="#F4EEE7" stroke-width="8" stroke-linecap="round"/>
  <path d="M772 190V680" stroke="#F4EEE7" stroke-width="4" stroke-linecap="round" opacity="0.8"/>
  <circle cx="972" cy="184" r="112" fill="#C98D62" fill-opacity="0.16"/>
  <defs>
    <linearGradient id="bg" x1="100" y1="92" x2="1020" y2="820" gradientUnits="userSpaceOnUse">
      <stop stop-color="#F9F2E8"/>
      <stop offset="1" stop-color="#E7D9C8"/>
    </linearGradient>
  </defs>
</svg>