<svg width="640" height="180" viewBox="0 0 640 180" fill="none" xmlns="http://www.w3.org/2000/svg">
  <rect width="640" height="180" rx="18" fill="#128687"/>
  <g filter="url(#shadow)">
    <path d="M72 24L117 31L145 60V112L118 142L72 150L27 142L0 112V60L28 31L72 24Z" fill="url(#shieldBody)"/>
    <path d="M72 35L111 41L135 66V107L111 132L72 139L34 132L10 107V66L34 41L72 35Z" stroke="#E6F7FA" stroke-width="4"/>
    <path d="M72 55V118" stroke="#253544" stroke-width="12" stroke-linecap="round"/>
    <path d="M40 86H104" stroke="#253544" stroke-width="12" stroke-linecap="round"/>
    <path d="M72 59V114" stroke="#D9EEF5" stroke-width="6" stroke-linecap="round"/>
    <path d="M43 86H101" stroke="#D9EEF5" stroke-width="6" stroke-linecap="round"/>
  </g>
  <path d="M176 34V144" stroke="#0E2327" stroke-width="4"/>
  <g fill="#0F1A1D">
    <path d="M210 66H358V76H210V66ZM210 84H332V94H210V84ZM210 102H340V112H210V102Z" opacity="0.12"/>
  </g>
  <text x="206" y="74" fill="#16353B" font-family="Arial, Helvetica, sans-serif" font-size="42" font-weight="700" letter-spacing="0.02em">EPICSHIELD</text>
  <text x="207" y="114" fill="#0F171A" font-family="Arial, Helvetica, sans-serif" font-size="50" font-weight="900">SURFACES</text>
  <text x="208" y="142" fill="#A7D0CF" font-family="Arial, Helvetica, sans-serif" font-size="18" font-weight="600" letter-spacing="0.1em">CREATING SPACE TO SAVE LIVES.</text>
  <defs>
    <linearGradient id="shieldBody" x1="18" y1="28" x2="124" y2="140" gradientUnits="userSpaceOnUse">
      <stop stop-color="#F7FFFF"/>
      <stop offset="0.38" stop-color="#8BC6D1"/>
      <stop offset="0.7" stop-color="#5B6A84"/>
      <stop offset="1" stop-color="#1F2937"/>
    </linearGradient>
    <filter id="shadow" x="0" y="24" width="145" height="134" filterUnits="userSpaceOnUse" color-interpolation-filters="sRGB">
      <feFlood flood-opacity="0" result="BackgroundImageFix"/>
      <feColorMatrix in="SourceAlpha" type="matrix" values="0 0 0 0 0 0 0 0 0 0 0 0 0 0 0 0 0 0 127 0" result="hardAlpha"/>
      <feOffset dy="4"/>
      <feGaussianBlur stdDeviation="4"/>
      <feComposite in2="hardAlpha" operator="out"/>
      <feColorMatrix type="matrix" values="0 0 0 0 0.036 0 0 0 0 0.106 0 0 0 0 0.118 0 0 0 0.28 0"/>
      <feBlend mode="normal" in2="BackgroundImageFix" result="effect1_dropShadow_0_1"/>
      <feBlend mode="normal" in="SourceGraphic" in2="effect1_dropShadow_0_1" result="shape"/>
    </filter>
  </defs>
</svg>