<svg width="1400" height="900" viewBox="0 0 1400 900" fill="none" xmlns="http://www.w3.org/2000/svg">
  <rect width="1400" height="900" fill="#F4ECE1"/>
  <rect x="58" y="58" width="1284" height="784" rx="38" fill="#FBF6EF"/>
  <rect x="134" y="160" width="1132" height="610" rx="28" fill="#EEE3D5"/>
  <rect x="828" y="246" width="282" height="370" rx="28" fill="#D7C5B1"/>
  <circle cx="598" cy="458" r="230" fill="#F8F3EC" stroke="#8FB8B0" stroke-width="22"/>
  <circle cx="598" cy="458" r="128" fill="#DDE7E0"/>
  <rect x="414" y="416" width="470" height="84" rx="42" fill="#C9B69F"/>
  <rect x="266" y="432" width="272" height="50" rx="25" fill="#E9DDD0"/>
  <rect x="342" y="332" width="140" height="24" rx="12" fill="#D6C6B4"/>
  <rect x="342" y="368" width="98" height="18" rx="9" fill="#D6C6B4"/>
  <rect x="886" y="302" width="166" height="104" rx="18" fill="#F8F2EA"/>
  <rect x="908" y="324" width="120" height="14" rx="7" fill="#8FB8B0"/>
  <rect x="908" y="350" width="96" height="10" rx="5" fill="#C98D62" fill-opacity="0.65"/>
  <rect x="908" y="372" width="82" height="10" rx="5" fill="#C98D62" fill-opacity="0.35"/>
  <path d="M131 726H1268" stroke="#D8C9B7" stroke-width="8" stroke-linecap="round"/>
</svg>